<svg version="1.1" id="Layer_1" xmlns="http://www.w3.org/2000/svg" xmlns:xlink="http://www.w3.org/1999/xlink" x="0px" y="0px"
	 width="100%" viewBox="0 0 800 600" enable-background="new 0 0 800 600" xml:space="preserve">
<path fill="#000000" opacity="1.000000" stroke="none" 
	d="
M582.000000,601.000000 
	C388.000000,601.000000 194.500000,601.000000 1.000000,601.000000 
	C1.000000,401.000000 1.000000,201.000000 1.000000,1.000000 
	C267.666656,1.000000 534.333313,1.000000 801.000000,1.000000 
	C801.000000,201.000000 801.000000,401.000000 801.000000,601.000000 
	C728.166687,601.000000 655.333313,601.000000 582.000000,601.000000 
M668.430969,155.155624 
	C670.945984,159.567719 674.198853,163.724915 675.828918,168.442795 
	C679.724487,179.717911 680.021912,191.581100 680.004028,203.413116 
	C679.985901,215.410324 680.050720,227.407791 679.991516,239.404724 
	C679.676208,303.320190 679.312195,367.235413 679.027222,431.150970 
	C678.992188,439.002136 676.577576,446.093079 673.019714,452.928802 
	C662.158997,473.795502 644.624268,484.812927 621.464233,484.854401 
	C465.500916,485.133820 309.536804,485.033478 153.573105,484.911346 
	C144.828445,484.904480 136.146957,483.462646 128.221817,479.108734 
	C124.219673,476.910065 120.015266,475.079590 114.741966,472.519257 
	C115.859848,475.397980 116.055534,477.414642 117.162048,478.516998 
	C127.988022,489.301819 138.355789,500.399994 152.473846,507.520752 
	C162.734741,512.696106 173.365005,514.829834 184.262253,514.847473 
	C325.895691,515.077454 467.529755,515.093750 609.163208,514.878662 
	C626.432678,514.852417 643.669617,516.124878 661.046204,512.443420 
	C673.646790,509.773834 683.948975,504.392609 692.486755,495.740997 
	C704.153625,483.918610 708.756409,468.475464 708.831909,452.382690 
	C709.202393,373.402740 709.060486,294.419983 708.878235,215.438721 
	C708.864563,209.504639 707.787231,203.366043 706.018250,197.692337 
	C703.478210,189.545532 700.164917,181.600861 694.060242,175.197540 
	C686.137207,166.886917 678.443604,158.355270 670.406738,150.158508 
	C669.517700,149.251801 667.030029,149.912537 664.523804,149.533600 
	C663.550171,147.857803 662.710144,146.085602 661.581360,144.521805 
	C654.119629,134.185013 645.070251,125.828690 632.292847,122.763771 
	C624.368225,120.862900 616.302246,118.222168 608.293640,118.201096 
	C495.158173,117.903519 382.021667,117.998688 268.885406,117.998688 
	C245.558350,117.998688 222.218552,117.517754 198.907822,118.134819 
	C175.892166,118.744064 152.780441,115.579407 129.815689,120.792694 
	C121.981247,122.571213 114.567413,124.986809 108.399307,129.462357 
	C100.180107,135.426163 94.097412,143.355225 89.335052,152.866699 
	C84.934959,161.654602 83.438034,170.775391 83.382866,179.680405 
	C82.897697,257.989685 83.054092,336.303314 83.185081,414.615356 
	C83.195953,421.118103 83.209114,428.053436 85.362122,434.014496 
	C88.295158,442.135193 91.314865,450.463715 97.895592,456.962372 
	C109.272957,468.197876 121.980026,475.986664 138.524628,475.928925 
	C151.812485,475.882538 165.100708,475.943726 178.388763,475.942535 
	C325.849091,475.929474 473.309662,476.002533 620.769104,475.626007 
	C627.869995,475.607880 635.640747,472.791229 641.872864,469.167816 
	C648.663330,465.219818 654.551270,459.283417 659.866760,453.348724 
	C666.033875,446.463287 670.600952,437.508118 670.662476,428.675201 
	C671.198792,351.701324 670.949768,274.721985 670.934692,197.744278 
	C670.934448,196.577957 670.854675,195.403702 670.959473,194.246506 
	C672.158325,181.013885 671.654602,167.929153 668.430969,155.155624 
z"/>
<path fill="#FEFEFE" opacity="1.000000" stroke="none" 
	d="
M667.663147,155.135864 
	C671.654602,167.929153 672.158325,181.013885 670.959473,194.246506 
	C670.854675,195.403702 670.934448,196.577957 670.934692,197.744278 
	C670.949768,274.721985 671.198792,351.701324 670.662476,428.675201 
	C670.600952,437.508118 666.033875,446.463287 659.866760,453.348724 
	C654.551270,459.283417 648.663330,465.219818 641.872864,469.167816 
	C635.640747,472.791229 627.869995,475.607880 620.769104,475.626007 
	C473.309662,476.002533 325.849091,475.929474 178.388763,475.942535 
	C165.100708,475.943726 151.812485,475.882538 138.524628,475.928925 
	C121.980026,475.986664 109.272957,468.197876 97.895592,456.962372 
	C91.314865,450.463715 88.295158,442.135193 85.362122,434.014496 
	C83.209114,428.053436 83.195953,421.118103 83.185081,414.615356 
	C83.054092,336.303314 82.897697,257.989685 83.382866,179.680405 
	C83.438034,170.775391 84.934959,161.654602 89.335052,152.866699 
	C94.097412,143.355225 100.180107,135.426163 108.399307,129.462357 
	C114.567413,124.986809 121.981247,122.571213 129.815689,120.792694 
	C152.780441,115.579407 175.892166,118.744064 198.907822,118.134819 
	C222.218552,117.517754 245.558350,117.998688 268.885406,117.998688 
	C382.021667,117.998688 495.158173,117.903519 608.293640,118.201096 
	C616.302246,118.222168 624.368225,120.862900 632.292847,122.763771 
	C645.070251,125.828690 654.119629,134.185013 661.581360,144.521805 
	C662.710144,146.085602 663.550171,147.857803 664.980103,149.979309 
	C666.178650,151.995300 666.920898,153.565582 667.663147,155.135864 
M491.213898,210.506088 
	C491.231903,227.665726 491.260345,244.825378 491.265961,261.985016 
	C491.280731,307.134827 491.191528,352.285187 491.449127,397.433563 
	C491.473206,401.654877 492.943604,406.255463 494.982056,410.006226 
	C501.514496,422.025940 512.521362,427.266083 525.714355,427.502289 
	C545.867737,427.863159 566.033752,427.723785 586.191040,427.495575 
	C590.417908,427.447754 595.009766,426.923462 598.781799,425.195923 
	C613.583008,418.416992 620.045898,409.837097 620.433777,393.268677 
	C620.995178,369.289764 620.612549,345.288269 620.595276,321.296387 
	C620.567139,282.143341 620.640259,242.989410 620.384705,203.837723 
	C620.306458,191.846359 616.808289,180.564911 605.364563,174.917511 
	C598.196777,171.380264 589.778809,169.363037 581.767151,168.776657 
	C568.343201,167.794159 554.785400,168.175629 541.304016,168.608170 
	C532.404724,168.893707 523.421509,169.657532 514.695435,171.343460 
	C506.613953,172.904831 499.981384,177.157990 495.681396,184.973297 
	C491.361023,192.825699 491.024109,201.031326 491.213898,210.506088 
M441.566742,200.802795 
	C441.554871,193.395187 438.921356,186.850662 434.426697,181.161011 
	C426.471008,171.090179 414.699768,169.424377 403.181702,168.694611 
	C390.073181,167.864075 376.861969,168.179825 363.714691,168.600235 
	C354.823242,168.884583 345.870728,169.666748 337.112213,171.186676 
	C320.332489,174.098572 312.722321,186.428879 312.598480,200.891907 
	C312.045013,265.524994 312.297058,330.165680 312.487030,394.802917 
	C312.500244,399.305847 313.592987,404.174255 315.524719,408.234711 
	C321.661499,421.133942 332.753113,427.168030 346.608124,427.492767 
	C365.256317,427.929871 383.923523,427.486450 402.580444,427.655090 
	C409.814453,427.720490 416.632446,426.605072 423.261780,423.604187 
	C434.262268,418.624542 441.136536,408.782013 441.415894,396.822449 
	C441.909821,375.676300 441.596405,354.511017 441.580292,333.353790 
	C441.579254,331.994873 441.230560,330.636230 441.050446,329.327240 
	C440.062378,329.377350 439.687805,329.296570 439.409576,329.424835 
	C425.666992,335.760620 411.940887,342.132324 398.191040,348.452301 
	C395.098694,349.873657 394.028534,352.012573 394.147034,355.512817 
	C394.440002,364.165771 394.057495,372.841125 394.327728,381.495575 
	C394.455048,385.573975 392.941772,386.668274 389.092407,386.549377 
	C381.269928,386.307739 373.420563,386.188477 365.610199,386.578430 
	C360.786865,386.819214 359.443512,385.336334 359.458313,380.484192 
	C359.626251,325.508911 359.565186,270.532928 359.566162,215.557114 
	C359.566193,214.557617 359.604950,213.557205 359.574524,212.558777 
	C359.482544,209.541809 360.772095,208.649857 363.866974,208.816238 
	C371.830200,209.244431 379.822723,209.496643 387.792236,209.317352 
	C393.624908,209.186127 394.216766,209.337921 394.234283,215.371979 
	C394.270050,227.699783 394.232971,240.027771 394.255188,252.355652 
	C394.258331,254.107956 394.425232,255.859970 394.546173,258.186127 
	C396.916382,257.497284 398.699249,257.194733 400.297729,256.479919 
	C411.388306,251.520416 422.406372,246.397980 433.516479,241.483353 
	C441.555939,237.927032 441.603851,238.033752 441.597534,229.226196 
	C441.590973,220.063599 441.582886,210.901001 441.566742,200.802795 
M134.270889,402.213715 
	C135.030243,404.539429 135.475601,407.030823 136.600677,409.163605 
	C143.201996,421.677673 154.222366,427.230225 167.832291,427.508850 
	C185.988449,427.880463 204.159271,427.717560 222.320953,427.522095 
	C227.412292,427.467316 232.622742,427.026642 237.555527,425.837677 
	C252.443222,422.249329 262.283264,411.749542 262.404816,396.100525 
	C262.718018,355.776031 262.569244,315.447876 262.586884,275.121185 
	C262.601501,241.626480 262.465179,208.130814 262.720520,174.638046 
	C262.760468,169.399170 261.194122,168.212036 256.243011,168.373367 
	C244.923508,168.742233 233.583725,168.488861 222.252182,168.490036 
	C215.278412,168.490768 215.271942,168.492279 215.271667,175.290878 
	C215.269379,233.115067 215.269852,290.939240 215.268890,348.763428 
	C215.268707,359.761688 215.361893,370.761749 215.155731,381.756165 
	C215.126389,383.321869 213.677643,386.184875 212.820572,386.209869 
	C202.233719,386.518463 191.634750,386.411194 180.103943,386.411194 
	C180.103943,366.352051 180.103943,346.912750 180.103943,326.938568 
	C164.969452,333.995483 150.921692,340.784729 136.631332,347.017731 
	C133.582993,348.347321 133.130280,349.867645 133.141556,352.537079 
	C133.192841,364.701599 133.105438,376.867004 133.205353,389.030945 
	C133.239334,393.168121 133.676300,397.302002 134.270889,402.213715 
z"/>
<path fill="#F5900C" opacity="1.000000" stroke="none" 
	d="
M668.047058,155.145737 
	C666.920898,153.565582 666.178650,151.995300 665.360107,150.135666 
	C667.030029,149.912537 669.517700,149.251801 670.406738,150.158508 
	C678.443604,158.355270 686.137207,166.886917 694.060242,175.197540 
	C700.164917,181.600861 703.478210,189.545532 706.018250,197.692337 
	C707.787231,203.366043 708.864563,209.504639 708.878235,215.438721 
	C709.060486,294.419983 709.202393,373.402740 708.831909,452.382690 
	C708.756409,468.475464 704.153625,483.918610 692.486755,495.740997 
	C683.948975,504.392609 673.646790,509.773834 661.046204,512.443420 
	C643.669617,516.124878 626.432678,514.852417 609.163208,514.878662 
	C467.529755,515.093750 325.895691,515.077454 184.262253,514.847473 
	C173.365005,514.829834 162.734741,512.696106 152.473846,507.520752 
	C138.355789,500.399994 127.988022,489.301819 117.162048,478.516998 
	C116.055534,477.414642 115.859848,475.397980 114.741966,472.519257 
	C120.015266,475.079590 124.219673,476.910065 128.221817,479.108734 
	C136.146957,483.462646 144.828445,484.904480 153.573105,484.911346 
	C309.536804,485.033478 465.500916,485.133820 621.464233,484.854401 
	C644.624268,484.812927 662.158997,473.795502 673.019714,452.928802 
	C676.577576,446.093079 678.992188,439.002136 679.027222,431.150970 
	C679.312195,367.235413 679.676208,303.320190 679.991516,239.404724 
	C680.050720,227.407791 679.985901,215.410324 680.004028,203.413116 
	C680.021912,191.581100 679.724487,179.717911 675.828918,168.442795 
	C674.198853,163.724915 670.945984,159.567719 668.047058,155.145737 
z"/>
<path fill="#1D2B56" opacity="1.000000" stroke="none" 
	d="
M491.213928,210.007904 
	C491.024109,201.031326 491.361023,192.825699 495.681396,184.973297 
	C499.981384,177.157990 506.613953,172.904831 514.695435,171.343460 
	C523.421509,169.657532 532.404724,168.893707 541.304016,168.608170 
	C554.785400,168.175629 568.343201,167.794159 581.767151,168.776657 
	C589.778809,169.363037 598.196777,171.380264 605.364563,174.917511 
	C616.808289,180.564911 620.306458,191.846359 620.384705,203.837723 
	C620.640259,242.989410 620.567139,282.143341 620.595276,321.296387 
	C620.612549,345.288269 620.995178,369.289764 620.433777,393.268677 
	C620.045898,409.837097 613.583008,418.416992 598.781799,425.195923 
	C595.009766,426.923462 590.417908,427.447754 586.191040,427.495575 
	C566.033752,427.723785 545.867737,427.863159 525.714355,427.502289 
	C512.521362,427.266083 501.514496,422.025940 494.982056,410.006226 
	C492.943604,406.255463 491.473206,401.654877 491.449127,397.433563 
	C491.191528,352.285187 491.280731,307.134827 491.265961,261.985016 
	C491.260345,244.825378 491.231903,227.665726 491.213928,210.007904 
M538.964783,343.500000 
	C538.962646,356.151550 539.060181,368.804382 538.892883,381.453766 
	C538.847473,384.886169 539.811462,386.156219 543.396301,386.048798 
	C551.379517,385.809479 559.385437,385.728058 567.360962,386.072235 
	C571.560791,386.253479 572.289490,384.623413 572.283630,380.888031 
	C572.196472,325.484558 572.240845,270.080841 572.229126,214.677216 
	C572.228760,212.923447 571.960510,211.169724 571.861938,209.963715 
	C562.127319,209.963715 553.008118,210.183121 543.907837,209.864990 
	C539.772034,209.720413 538.758972,211.217270 538.894409,215.023483 
	C539.134766,221.777527 538.963684,228.546249 538.963867,235.308823 
	C538.964417,250.563797 538.964661,265.818756 538.964722,281.073730 
	C538.964844,301.549164 538.964783,322.024567 538.964783,343.500000 
z"/>
<path fill="#1D2C56" opacity="1.000000" stroke="none" 
	d="
M441.571106,201.270599 
	C441.582886,210.901001 441.590973,220.063599 441.597534,229.226196 
	C441.603851,238.033752 441.555939,237.927032 433.516479,241.483353 
	C422.406372,246.397980 411.388306,251.520416 400.297729,256.479919 
	C398.699249,257.194733 396.916382,257.497284 394.546173,258.186127 
	C394.425232,255.859970 394.258331,254.107956 394.255188,252.355652 
	C394.232971,240.027771 394.270050,227.699783 394.234283,215.371979 
	C394.216766,209.337921 393.624908,209.186127 387.792236,209.317352 
	C379.822723,209.496643 371.830200,209.244431 363.866974,208.816238 
	C360.772095,208.649857 359.482544,209.541809 359.574524,212.558777 
	C359.604950,213.557205 359.566193,214.557617 359.566162,215.557114 
	C359.565186,270.532928 359.626251,325.508911 359.458313,380.484192 
	C359.443512,385.336334 360.786865,386.819214 365.610199,386.578430 
	C373.420563,386.188477 381.269928,386.307739 389.092407,386.549377 
	C392.941772,386.668274 394.455048,385.573975 394.327728,381.495575 
	C394.057495,372.841125 394.440002,364.165771 394.147034,355.512817 
	C394.028534,352.012573 395.098694,349.873657 398.191040,348.452301 
	C411.940887,342.132324 425.666992,335.760620 439.409576,329.424835 
	C439.687805,329.296570 440.062378,329.377350 441.050446,329.327240 
	C441.230560,330.636230 441.579254,331.994873 441.580292,333.353790 
	C441.596405,354.511017 441.909821,375.676300 441.415894,396.822449 
	C441.136536,408.782013 434.262268,418.624542 423.261780,423.604187 
	C416.632446,426.605072 409.814453,427.720490 402.580444,427.655090 
	C383.923523,427.486450 365.256317,427.929871 346.608124,427.492767 
	C332.753113,427.168030 321.661499,421.133942 315.524719,408.234711 
	C313.592987,404.174255 312.500244,399.305847 312.487030,394.802917 
	C312.297058,330.165680 312.045013,265.524994 312.598480,200.891907 
	C312.722321,186.428879 320.332489,174.098572 337.112213,171.186676 
	C345.870728,169.666748 354.823242,168.884583 363.714691,168.600235 
	C376.861969,168.179825 390.073181,167.864075 403.181702,168.694611 
	C414.699768,169.424377 426.471008,171.090179 434.426697,181.161011 
	C438.921356,186.850662 441.554871,193.395187 441.571106,201.270599 
z"/>
<path fill="#1D2C56" opacity="1.000000" stroke="none" 
	d="
M134.100006,401.825562 
	C133.676300,397.302002 133.239334,393.168121 133.205353,389.030945 
	C133.105438,376.867004 133.192841,364.701599 133.141556,352.537079 
	C133.130280,349.867645 133.582993,348.347321 136.631332,347.017731 
	C150.921692,340.784729 164.969452,333.995483 180.103943,326.938568 
	C180.103943,346.912750 180.103943,366.352051 180.103943,386.411194 
	C191.634750,386.411194 202.233719,386.518463 212.820572,386.209869 
	C213.677643,386.184875 215.126389,383.321869 215.155731,381.756165 
	C215.361893,370.761749 215.268707,359.761688 215.268890,348.763428 
	C215.269852,290.939240 215.269379,233.115067 215.271667,175.290878 
	C215.271942,168.492279 215.278412,168.490768 222.252182,168.490036 
	C233.583725,168.488861 244.923508,168.742233 256.243011,168.373367 
	C261.194122,168.212036 262.760468,169.399170 262.720520,174.638046 
	C262.465179,208.130814 262.601501,241.626480 262.586884,275.121185 
	C262.569244,315.447876 262.718018,355.776031 262.404816,396.100525 
	C262.283264,411.749542 252.443222,422.249329 237.555527,425.837677 
	C232.622742,427.026642 227.412292,427.467316 222.320953,427.522095 
	C204.159271,427.717560 185.988449,427.880463 167.832291,427.508850 
	C154.222366,427.230225 143.201996,421.677673 136.600677,409.163605 
	C135.475601,407.030823 135.030243,404.539429 134.100006,401.825562 
z"/>
<path fill="#F8F0EF" opacity="1.000000" stroke="none" 
	d="
M538.964783,343.000000 
	C538.964783,322.024567 538.964844,301.549164 538.964722,281.073730 
	C538.964661,265.818756 538.964417,250.563797 538.963867,235.308823 
	C538.963684,228.546249 539.134766,221.777527 538.894409,215.023483 
	C538.758972,211.217270 539.772034,209.720413 543.907837,209.864990 
	C553.008118,210.183121 562.127319,209.963715 571.861938,209.963715 
	C571.960510,211.169724 572.228760,212.923447 572.229126,214.677216 
	C572.240845,270.080841 572.196472,325.484558 572.283630,380.888031 
	C572.289490,384.623413 571.560791,386.253479 567.360962,386.072235 
	C559.385437,385.728058 551.379517,385.809479 543.396301,386.048798 
	C539.811462,386.156219 538.847473,384.886169 538.892883,381.453766 
	C539.060181,368.804382 538.962646,356.151550 538.964783,343.000000 
z"/>
</svg>